<?xml version="1.0" encoding="UTF-8"?>
<!DOCTYPE svg PUBLIC "-//W3C//DTD SVG 1.1//EN" "http://www.w3.org/Graphics/SVG/1.1/DTD/svg11.dtd">
<!-- Creator: CorelDRAW X7 -->
<svg xmlns="http://www.w3.org/2000/svg" xml:space="preserve" width="645mm" height="110mm" version="1.1" style="shape-rendering:geometricPrecision; text-rendering:geometricPrecision; image-rendering:optimizeQuality; fill-rule:evenodd; clip-rule:evenodd"
viewBox="0 0 64500 11000"
 xmlns:xlink="http://www.w3.org/1999/xlink">
 <defs>
  <style type="text/css">
   <![CDATA[
    .str0 {stroke:black;stroke-width:10}
    .fil0 {fill:white}
   ]]>
  </style>
 </defs>
 <g id="Capa_x0020_1">
  <metadata id="CorelCorpID_0Corel-Layer"/>
  <path id="Logo-Copy" class="fil0 str0" d="M9777 2076l-902 0 0 7864 -1691 0 -4115 -5355 0 3608 902 0 0 1747 -3806 0 0 -1747 902 0 0 -6117 -902 0 0 -1747 2904 0 3833 4989 0 -3242 -902 0 0 -1747 3805 0c-28,0 -28,1747 -28,1747l0 0zm6032 4482c0,141 0,282 0,451l-4200 0c-113,1353 395,1748 1156,1748 648,0 1127,-423 1127,-1100l1804 0c-28,1184 -648,2537 -3044,2537 -2368,0 -3467,-1719 -3467,-3636 0,-1719 1127,-3551 3439,-3551 2198,0 3185,1550 3185,3551zm10372 -1719l-620 0 -1550 5214 -2058 0 -958 -2847 -874 2847 -2085 0 -1720 -5214 -620 0 0 -1776 3636 0 0 1776 -902 0 958 2762 1241 -4538 1127 0 1522 4538 818 -2762 -902 0 0 -1776 3044 0c-57,0 -57,1776 -57,1776l0 0zm2565 56c0,254 198,423 874,620l987 310c902,310 2001,959 2001,2199 0,1437 -1071,2142 -2424,2142 -1071,0 -1889,-507 -2114,-761l0 592 -1776 0 0 -2424 1748 0c56,789 761,1212 1381,1212 507,0 761,-226 761,-479 0,-310 -197,-508 -1071,-790l-874 -281c-874,-282 -1860,-931 -1860,-2114 0,-1438 1268,-2143 2339,-2143 1128,0 1663,310 1945,621l0 -536 1776 0 0 2170 -1832 0c-29,-592 -592,-845 -1184,-845 -479,28 -677,225 -677,507l0 0 0 0zm14488 -56l-620 0 -1550 5214 -2058 0 -958 -2847 -874 2847 -2086 0 -1719 -5214 -620 0 0 -1776 3636 0 0 1776 -902 0 958 2762 1212 -4538 1128 0 1522 4538 817 -2762 -930 0 0 -1776 3044 0 0 1776 0 0zm6427 1719c0,141 0,282 0,451l-4172 0c-113,1353 395,1748 1156,1748 648,0 1127,-423 1127,-1100l1804 0c-28,1184 -677,2537 -3044,2537 -2396,0 -3495,-1719 -3495,-3636 0,-1719 1155,-3551 3467,-3551 2198,0 3157,1522 3157,3551l0 0zm6877 -28c0,141 0,282 0,451l-4172 0c-112,1353 395,1747 1156,1747 648,0 1127,-422 1127,-1099l1804 0c-28,1184 -676,2537 -3044,2537 -2396,0 -3495,-1719 -3495,-3636 0,-1719 1156,-3552 3467,-3552 2199,0 3157,1523 3157,3552l0 0zm7582 3495l-2086 0 -2170 -2847 -705 536 0 563 620 0 0 1776 -3241 0 0 -1747 620 0 0 -6201 -902 0 0 -1776 2903 0 0 5581 1466 -1071 -902 0 0 -1776 3862 0 0 1776 -621 0 -1522 1127 1748 2283 902 0c28,28 28,1776 28,1776l0 0zm-11754 -4172l2283 0c0,-986 -648,-1381 -1099,-1381 -563,0 -1155,451 -1184,1381l0 0zm-6877 0l2283 0c0,-986 -648,-1381 -1127,-1381 -536,29 -1128,479 -1156,1381l0 0zm-33852 29l2283 0c0,-987 -648,-1381 -1127,-1381 -564,0 -1128,450 -1156,1381z" inkscape:connector-curvature="0"/>
 </g>
</svg>
