<?xml version="1.0" encoding="UTF-8"?>
<!DOCTYPE svg PUBLIC "-//W3C//DTD SVG 1.1//EN" "http://www.w3.org/Graphics/SVG/1.1/DTD/svg11.dtd">
<!-- Creator: CorelDRAW X7 -->
<svg xmlns="http://www.w3.org/2000/svg" xml:space="preserve" width="2591px" height="477px" version="1.1" style="shape-rendering:geometricPrecision; text-rendering:geometricPrecision; image-rendering:optimizeQuality; fill-rule:evenodd; clip-rule:evenodd"
viewBox="0 0 2591 477"
 xmlns:xlink="http://www.w3.org/1999/xlink">
 <defs>
  <style type="text/css">
   <![CDATA[
    .str0 {stroke:black;stroke-width:1.18095}
    .fil0 {fill:white}
   ]]>
  </style>
 </defs>
 <g id="Capa_x0020_1">
  <metadata id="CorelCorpID_0Corel-Layer"/>
  <path id="Logo-Copy" class="fil0 str0" d="M413 89l-36 0 0 316 -68 0 -166 -215 0 145 37 0 0 70 -153 0 0 -70 36 0 0 -246 -36 0 0 -70 116 0 154 200 0 -130 -36 0 0 -70 153 0c-1,0 -1,70 -1,70l0 0zm242 180c0,6 0,11 0,18l-169 0c-4,54 16,70 47,70 26,0 45,-17 45,-44l72 0c-1,48 -26,102 -122,102 -95,0 -139,-69 -139,-146 0,-69 45,-143 138,-143 88,0 128,63 128,143zm416 -69l-25 0 -62 209 -83 0 -38 -114 -35 114 -84 0 -69 -209 -25 0 0 -71 146 0 0 71 -36 0 39 111 49 -182 46 0 61 182 33 -111 -37 0 0 -71 122 0c-2,0 -2,71 -2,71l0 0zm103 2c0,10 8,17 35,25l40 13c36,12 80,38 80,88 0,58 -43,86 -97,86 -43,0 -76,-20 -85,-31l0 24 -71 0 0 -97 70 0c2,31 30,48 55,48 21,0 31,-9 31,-19 0,-12 -8,-20 -43,-32l-35 -11c-35,-11 -75,-37 -75,-85 0,-57 51,-86 94,-86 45,0 67,13 78,25l0 -21 71 0 0 87 -73 0c-1,-24 -24,-34 -48,-34 -19,1 -27,9 -27,20l0 0 0 0zm582 -2l-25 0 -62 209 -83 0 -38 -114 -36 114 -83 0 -69 -209 -25 0 0 -71 146 0 0 71 -36 0 38 111 49 -182 45 0 61 182 33 -111 -37 0 0 -71 122 0 0 71 0 0zm258 69c0,6 0,11 0,18l-168 0c-4,54 16,70 47,70 26,0 45,-17 45,-44l72 0c-1,48 -27,102 -122,102 -96,0 -140,-69 -140,-146 0,-69 46,-143 139,-143 88,0 127,62 127,143l0 0zm276 -1c0,6 0,11 0,18l-168 0c-4,54 16,70 47,70 26,0 45,-17 45,-44l72 0c-1,48 -27,102 -122,102 -96,0 -140,-69 -140,-146 0,-69 46,-143 139,-143 88,0 127,61 127,143l0 0zm304 140l-84 0 -87 -114 -28 21 0 23 25 0 0 71 -130 0 0 -70 25 0 0 -249 -37 0 0 -71 117 0 0 224 59 -43 -36 0 0 -71 155 0 0 71 -25 0 -61 45 70 92 36 0c1,1 1,71 1,71l0 0zm-472 -167l92 0c0,-40 -26,-56 -44,-56 -23,0 -47,18 -48,56l0 0zm-276 0l92 0c0,-40 -26,-56 -45,-56 -22,1 -46,20 -47,56l0 0zm-1359 1l92 0c0,-40 -26,-56 -45,-56 -23,0 -45,19 -47,56z" inkscape:connector-curvature="0"/>
 </g>
</svg>
